<svg width="24" height="24" viewBox="0 0 24 24" fill="none" xmlns="http://www.w3.org/2000/svg">
<path d="M11.5273 9.1582C11.8216 8.91878 12.2549 8.93542 12.5293 9.20898L16.0596 12.7295C16.3525 13.022 16.3529 13.4969 16.0605 13.79C15.7681 14.083 15.2932 14.0833 15 13.791L11.999 10.7988L8.99902 13.791C8.70576 14.0834 8.23095 14.0832 7.93848 13.79C7.64602 13.4968 7.64719 13.022 7.94043 12.7295L11.4697 9.20898L11.5273 9.1582Z" fill="#2ECC71"/>
<path fill-rule="evenodd" clip-rule="evenodd" d="M12 1.25C17.9371 1.25 22.75 6.06294 22.75 12C22.75 17.9371 17.9371 22.75 12 22.75C6.06294 22.75 1.25 17.9371 1.25 12C1.25 6.06294 6.06294 1.25 12 1.25ZM12 2.75C6.89137 2.75 2.75 6.89137 2.75 12C2.75 17.1086 6.89137 21.25 12 21.25C17.1086 21.25 21.25 17.1086 21.25 12C21.25 6.89137 17.1086 2.75 12 2.75Z" fill="#2ECC71"/>
</svg>
