<svg width="20" height="20" viewBox="0 0 20 20" fill="none" xmlns="http://www.w3.org/2000/svg">
<path d="M15.5892 5.58928C15.9147 5.26384 15.9147 4.7362 15.5892 4.41076C15.2638 4.08533 14.7361 4.08533 14.4107 4.41076L9.99996 8.82151L5.58922 4.41076C5.26378 4.08533 4.73614 4.08533 4.4107 4.41076C4.08527 4.7362 4.08527 5.26384 4.4107 5.58928L8.82145 10L4.4107 14.4108C4.08527 14.7362 4.08527 15.2638 4.4107 15.5893C4.73614 15.9147 5.26378 15.9147 5.58922 15.5893L9.99996 11.1785L14.4107 15.5893C14.7361 15.9147 15.2638 15.9147 15.5892 15.5893C15.9147 15.2638 15.9147 14.7362 15.5892 14.4108L11.1785 10L15.5892 5.58928Z" fill="#BFBFBF"/>
</svg>
