<svg width="24" height="24" viewBox="0 0 24 24" fill="none" xmlns="http://www.w3.org/2000/svg">
<path fill-rule="evenodd" clip-rule="evenodd" d="M20 1.25C21.5188 1.25 22.75 2.48122 22.75 4C22.75 5.51878 21.5188 6.75 20 6.75C18.7415 6.75 17.6832 5.90386 17.3564 4.75H14C13.1156 4.75 12.59 4.97053 12.2803 5.28027C11.9705 5.59001 11.75 6.11561 11.75 7V11.25H17.3564C17.6832 10.0961 18.7415 9.25 20 9.25C21.5188 9.25 22.75 10.4812 22.75 12C22.75 13.5188 21.5188 14.75 20 14.75C18.7415 14.75 17.6832 13.9039 17.3564 12.75H11.75V17C11.75 17.8844 11.9705 18.41 12.2803 18.7197C12.59 19.0295 13.1156 19.25 14 19.25H17.3564C17.6832 18.0961 18.7415 17.25 20 17.25C21.5188 17.25 22.75 18.4812 22.75 20C22.75 21.5188 21.5188 22.75 20 22.75C18.7415 22.75 17.6832 21.9039 17.3564 20.75H14C12.8844 20.75 11.91 20.4705 11.2197 19.7803C10.5295 19.09 10.25 18.1156 10.25 17V12.75H6.64355C6.31684 13.9039 5.2585 14.75 4 14.75C2.48122 14.75 1.25 13.5188 1.25 12C1.25 10.4812 2.48122 9.25 4 9.25C5.2585 9.25 6.31684 10.0961 6.64355 11.25H10.25V7C10.25 5.88439 10.5295 4.90999 11.2197 4.21973C11.91 3.52947 12.8844 3.25 14 3.25H17.3564C17.6832 2.09614 18.7415 1.25 20 1.25ZM20 18.75C19.3096 18.75 18.75 19.3096 18.75 20C18.75 20.6904 19.3096 21.25 20 21.25C20.6904 21.25 21.25 20.6904 21.25 20C21.25 19.3096 20.6904 18.75 20 18.75ZM4 10.75C3.30964 10.75 2.75 11.3096 2.75 12C2.75 12.6904 3.30964 13.25 4 13.25C4.69036 13.25 5.25 12.6904 5.25 12C5.25 11.3096 4.69036 10.75 4 10.75ZM20 10.75C19.3096 10.75 18.75 11.3096 18.75 12C18.75 12.6904 19.3096 13.25 20 13.25C20.6904 13.25 21.25 12.6904 21.25 12C21.25 11.3096 20.6904 10.75 20 10.75ZM20 2.75C19.3096 2.75 18.75 3.30964 18.75 4C18.75 4.69036 19.3096 5.25 20 5.25C20.6904 5.25 21.25 4.69036 21.25 4C21.25 3.30964 20.6904 2.75 20 2.75Z" fill="#2ECC71"/>
</svg>
