<svg xmlns="http://www.w3.org/2000/svg" width="44" height="36" fill="none">
  <g clip-path="url(#a)">
    <path fill="#2ecc71" d="M21.85 36q-5.926 0-10.622-1.842-4.697-1.843-7.61-5.155-2.912-3.315-3.615-7.69h10.349a7.2 7.2 0 0 0 1.96 3.637q1.508 1.519 3.917 2.324 2.41.805 5.526.806 3.766.001 6.429-1.198 2.662-1.197 4.092-3.454 1.431-2.254 1.431-5.434c0-2.12-.477-3.927-1.43-5.43q-1.434-2.256-4.094-3.455c-1.775-.796-3.917-1.198-6.428-1.198q-3.116.001-5.498.806c-1.591.536-2.89 1.306-3.893 2.3q-1.505 1.496-2.01 3.661H0q.703-4.422 3.616-7.71 2.911-3.291 7.61-5.135C14.357.614 17.895 0 21.85 0q6.628 0 11.604 2.256 4.972 2.255 7.76 6.305 2.788 4.053 2.788 9.436 0 5.385-2.788 9.439t-7.76 6.305q-4.971 2.256-11.604 2.256z"/>
    <path fill="#0b3954" d="M27.796 14.966c-.576-.87-1.376-1.54-2.41-2.022q-1.547-.72-3.615-.72t-3.616.72q-1.546.719-2.41 2.021c-.572.87-.861 1.879-.861 3.035q-.001 1.735.862 3.034c.575.87 1.375 1.543 2.409 2.022q1.546.72 3.616.72 2.068 0 3.615-.72 1.546-.718 2.41-2.022.86-1.301.861-3.034 0-1.735-.861-3.034"/>
  </g>
  <defs>
    <clipPath id="a">
      <path fill="#fff" d="M0 0h44v36H0z"/>
    </clipPath>
  </defs>
</svg>