<svg xmlns="http://www.w3.org/2000/svg" width="44" height="36" fill="none"><g clip-path="url(#a)"><path fill="#2ECC71" d="M21.85 36c-3.95 0-7.492-.614-10.622-1.842-3.132-1.228-5.668-2.948-7.61-5.155C1.678 26.792.472 24.23.004 21.313h10.348a7.181 7.181 0 0 0 1.96 3.637c1.007 1.012 2.312 1.788 3.918 2.324 1.606.536 3.45.806 5.526.806 2.511 0 4.653-.398 6.428-1.198 1.776-.797 3.14-1.95 4.093-3.454.954-1.504 1.431-3.313 1.431-5.434 0-2.12-.477-3.927-1.43-5.43-.955-1.505-2.321-2.655-4.094-3.455-1.775-.796-3.917-1.198-6.428-1.198-2.077 0-3.91.27-5.498.806-1.591.536-2.89 1.306-3.893 2.3-1.003.998-1.674 2.217-2.01 3.661H0c.468-2.948 1.674-5.518 3.616-7.71 1.941-2.193 4.477-3.907 7.61-5.135C14.357.614 17.895 0 21.85 0c4.419 0 8.287.752 11.604 2.256 3.314 1.503 5.902 3.606 7.76 6.305 1.859 2.702 2.788 5.847 2.788 9.436 0 3.589-.93 6.737-2.788 9.439-1.858 2.702-4.446 4.805-7.76 6.305-3.314 1.504-7.182 2.256-11.604 2.256V36Z"/><path fill="#0B3954" d="M27.796 14.966c-.576-.87-1.376-1.54-2.41-2.022-1.03-.48-2.237-.72-3.615-.72-1.379 0-2.585.24-3.616.72-1.03.479-1.834 1.153-2.41 2.022-.572.868-.86 1.878-.86 3.034s.285 2.169.86 3.034c.576.87 1.376 1.543 2.41 2.022 1.031.48 2.237.72 3.616.72 1.378 0 2.585-.24 3.615-.72 1.031-.479 1.834-1.153 2.41-2.022.572-.868.861-1.878.861-3.034s-.286-2.169-.861-3.034Z"/></g><defs><clipPath id="a"><path fill="#fff" d="M0 0h44v36H0z"/></clipPath></defs></svg>