<svg xmlns="http://www.w3.org/2000/svg" width="132" height="32" fill="none">
  <g clip-path="url(#a)">
    <path fill="#21aa58" d="M71.446 7.58q-2.111-1.298-4.972-1.298-2.69 0-4.802 1.28-1.84 1.117-3.1 3.012V.065h-6.845v10.51q-1.26-1.894-3.1-3.013-2.112-1.28-4.837-1.28c-1.817 0-3.502.432-4.92 1.298q-2.129 1.299-3.305 3.62-1.175 2.325-1.175 5.431c0 2.072.392 3.82 1.175 5.38q1.175 2.34 3.304 3.62t4.921 1.281c1.862 0 3.423-.427 4.82-1.28q1.84-1.126 3.115-3.057v9.426h6.846v-9.414q1.248 1.922 3.1 3.044 2.112 1.281 4.802 1.281 2.826 0 4.939-1.28 2.111-1.282 3.286-3.621t1.175-5.38c0-2.027-.386-3.882-1.157-5.43q-1.159-2.322-3.27-3.621M49.616 20.2q-1.67 1.417-3.713 1.417-1.329 0-2.35-.65a4.24 4.24 0 0 1-1.567-1.776q-.545-1.128-.545-2.562c0-.956.181-1.844.545-2.596a4.25 4.25 0 0 1 1.566-1.776q1.022-.649 2.35-.65 2.044 0 3.713 1.402 1.668 1.4 2.384 3.62-.716 2.153-2.384 3.57m18.68-1.008a4.4 4.4 0 0 1-1.566 1.776q-1.005.65-2.333.65-2.078 0-3.728-1.417-1.653-1.417-2.402-3.57.75-2.22 2.402-3.62 1.652-1.401 3.728-1.401 1.328 0 2.333.65a4.4 4.4 0 0 1 1.566 1.776q.562 1.127.562 2.595c0 .978-.187 1.81-.562 2.562zM85.784 19.853V6.862h-6.88v19.502h8.685l8.958-13.4v13.4h6.844V6.862h-8.922zM130.791 11.2q-1.21-2.322-3.371-3.62-2.163-1.298-5.023-1.299c-1.908 0-3.486.427-4.939 1.281q-1.913 1.125-3.236 3.037V6.862h-6.981V32h6.981v-9.44q1.313 1.94 3.236 3.07 2.18 1.281 4.939 1.281c1.838 0 3.58-.427 5.023-1.281q2.162-1.28 3.371-3.62T132 16.63c0-2.027-.403-3.882-1.209-5.431zm-6.404 7.992a4.36 4.36 0 0 1-1.669 1.759q-1.073.631-2.435.631c-.908 0-1.817-.21-2.657-.631a7 7 0 0 1-2.213-1.76 8.1 8.1 0 0 1-1.464-2.561 8.1 8.1 0 0 1 1.464-2.596 7.2 7.2 0 0 1 2.213-1.776 5.7 5.7 0 0 1 2.657-.65c.932 0 1.719.217 2.435.65a4.5 4.5 0 0 1 1.669 1.776q.597 1.129.597 2.596c0 .978-.199 1.81-.597 2.562M24.294 1.687Q20.684.001 15.868 0q-4.305 0-7.714 1.378-3.412 1.378-5.527 3.84Q.51 7.68 0 10.987h7.515q.365-1.62 1.459-2.738 1.094-1.12 2.827-1.722 1.731-.603 3.995-.603 2.735 0 4.669.896 1.933.895 2.973 2.583 1.038 1.688 1.039 4.064t-1.04 4.064-2.972 2.584q-1.934.895-4.67.895-2.262 0-4.012-.603-1.75-.601-2.845-1.739a5.43 5.43 0 0 1-1.423-2.72H0q.51 3.27 2.626 5.751t5.526 3.858q3.411 1.378 7.715 1.378 4.816 0 8.426-1.688t5.636-4.719 2.025-7.06q0-4.03-2.025-7.06t-5.636-4.719z"/>
    <path fill="#fff" d="M20.187 11.196q-.625-.974-1.75-1.512-1.125-.54-2.626-.539-1.503 0-2.627.54-1.123.539-1.75 1.511-.624.974-.625 2.271 0 1.298.626 2.271.624.975 1.75 1.512 1.123.54 2.626.539 1.502 0 2.626-.54 1.125-.539 1.75-1.511.625-.974.624-2.271 0-1.298-.624-2.271"/>
  </g>
  <defs>
    <clipPath id="a">
      <path fill="#fff" d="M0 0h132v32H0z"/>
    </clipPath>
  </defs>
</svg>