<svg width="24" height="24" viewBox="0 0 24 24" fill="none" xmlns="http://www.w3.org/2000/svg">
<path fill-rule="evenodd" clip-rule="evenodd" d="M12.2929 2.26401C13.4518 0.942876 15.6258 1.77205 15.6259 3.51987V9.97006H17.9657C19.6089 9.9702 20.4858 11.8991 19.3983 13.1351L11.829 21.7357L11.828 21.7347C10.6692 23.0564 8.49601 22.2278 8.49601 20.4798V14.0296H6.15616C4.51642 14.0296 3.65254 12.0988 4.71866 10.8685L4.72257 10.8646L12.2929 2.26401ZM14.1259 3.51987C14.1258 3.1488 13.6614 2.97758 13.4198 3.25327L13.4189 3.25522L5.84854 11.8558C5.62118 12.1255 5.81794 12.5296 6.15616 12.5296H9.24601C9.65994 12.5299 9.99585 12.8657 9.99601 13.2796V20.4798C9.99601 20.8511 10.4596 21.0214 10.7011 20.7455L10.703 20.7445L18.2724 12.1439C18.5044 11.8799 18.3222 11.4702 17.9657 11.4701H14.8759C14.4618 11.4701 14.126 11.1342 14.1259 10.7201V3.51987Z" fill="#2ECC71"/>
</svg>
