<svg width="20" height="20" viewBox="0 0 20 20" fill="none" xmlns="http://www.w3.org/2000/svg">
<path d="M18.35 14.0166L15.7417 7.91664C15.2667 6.79998 14.5583 6.16664 13.75 6.12498C12.95 6.08331 12.175 6.64164 11.5833 7.70831L9.99999 10.55C9.66666 11.15 9.19166 11.5083 8.67499 11.55C8.14999 11.6 7.62499 11.325 7.19999 10.7833L7.01666 10.55C6.42499 9.80831 5.69166 9.44998 4.94166 9.52498C4.19166 9.59998 3.54999 10.1166 3.12499 10.9583L1.68333 13.8333C1.16666 14.875 1.21666 16.0833 1.82499 17.0666C2.43333 18.05 3.49166 18.6416 4.64999 18.6416H15.2833C16.4 18.6416 17.4417 18.0833 18.0583 17.15C18.6917 16.2166 18.7917 15.0416 18.35 14.0166Z" fill="#2ECC71"/>
<path d="M5.80833 6.98331C7.36393 6.98331 8.62499 5.72224 8.62499 4.16664C8.62499 2.61104 7.36393 1.34998 5.80833 1.34998C4.25272 1.34998 2.99166 2.61104 2.99166 4.16664C2.99166 5.72224 4.25272 6.98331 5.80833 6.98331Z" fill="#2ECC71"/>
</svg>
