<svg width="24" height="24" viewBox="0 0 24 24" fill="none" xmlns="http://www.w3.org/2000/svg">
<path d="M12.0049 13C12.4189 13.0002 12.7549 13.3359 12.7549 13.75C12.7549 14.1641 12.4189 14.4998 12.0049 14.5H11.9951C11.5811 14.4998 11.2451 14.1641 11.2451 13.75C11.2451 13.3359 11.5811 13.0002 11.9951 13H12.0049Z" fill="#2ECC71"/>
<path d="M12 6.11035C13.3342 6.11045 14.4102 7.18639 14.4102 8.52051C14.4099 9.5722 13.7176 10.1268 13.2646 10.4365L13.2656 10.4375C13.0706 10.5722 12.9446 10.6781 12.8633 10.7871C12.796 10.8775 12.75 10.9827 12.75 11.1504V11.3604C12.7497 11.7743 12.414 12.1103 12 12.1104C11.5859 12.1104 11.2503 11.7743 11.25 11.3604V11.1504C11.25 10.0737 11.9588 9.51746 12.4141 9.20312L12.417 9.20117C12.602 9.07484 12.723 8.97104 12.8008 8.86621C12.8658 8.77847 12.91 8.67786 12.9102 8.52051C12.9102 8.01475 12.5057 7.61045 12 7.61035C11.4942 7.61035 11.0898 8.01469 11.0898 8.52051C11.0895 8.93444 10.7539 9.27051 10.3398 9.27051C9.92583 9.27051 9.59017 8.93444 9.58984 8.52051C9.58984 7.18633 10.6658 6.11035 12 6.11035Z" fill="#2ECC71"/>
<path fill-rule="evenodd" clip-rule="evenodd" d="M17 1.67969C18.6704 1.67969 20.1207 2.24081 21.1553 3.27539C22.1897 4.30996 22.75 5.76036 22.75 7.43066V13.4307C22.7499 15.1009 22.1897 16.5515 21.1553 17.5859C20.1207 18.6204 18.6703 19.1807 17 19.1807H13.2275L8.96582 22.0156L8.96484 22.0146C7.80999 22.7835 6.25036 21.9629 6.25 20.5605V19.1396C4.89605 18.9963 3.72107 18.4622 2.84473 17.5859C1.81026 16.5515 1.25011 15.1009 1.25 13.4307V7.43066C1.25 5.76036 1.8103 4.30996 2.84473 3.27539C3.87931 2.24081 5.32956 1.67969 7 1.67969H17ZM7 3.18066C5.67044 3.18066 4.62069 3.62052 3.90527 4.33594C3.19 5.05135 2.75 6.10125 2.75 7.43066V13.4307C2.75011 14.76 3.18996 15.8101 3.90527 16.5254C4.62068 17.2407 5.67059 17.6807 7 17.6807C7.41419 17.6807 7.74997 18.0165 7.75 18.4307V20.5605C7.75036 20.7571 7.96905 20.8761 8.13379 20.7666L12.585 17.8066L12.6807 17.752C12.7801 17.7052 12.8892 17.6807 13 17.6807H17C18.3294 17.6807 19.3793 17.2407 20.0947 16.5254C20.81 15.8101 21.2499 14.76 21.25 13.4307V7.43066C21.25 6.10125 20.81 5.05135 20.0947 4.33594C19.3793 3.62052 18.3296 3.18066 17 3.18066H7Z" fill="#2ECC71"/>
</svg>
