<svg width="20" height="20" viewBox="0 0 20 20" fill="none" xmlns="http://www.w3.org/2000/svg">
<path d="M18.099 5.2323V6.2073C18.099 7.02397 17.774 7.72397 17.199 8.13231C16.8406 8.39897 16.399 8.52397 15.9406 8.52397C15.6573 8.52397 15.374 8.48231 15.0823 8.38231L10.599 6.89064V14.999C10.599 17.1823 8.82398 18.9573 6.64065 18.9573C4.45731 18.9573 2.68231 17.1823 2.68231 14.999C2.68231 12.8156 4.45731 11.0406 6.64065 11.0406C7.69065 11.0406 8.64065 11.4573 9.34898 12.124V3.3323C9.34898 2.52397 9.68231 1.82397 10.2573 1.4073C10.8323 0.998971 11.599 0.907304 12.3656 1.1573L16.049 2.39064C17.1823 2.76564 18.099 4.04064 18.099 5.2323Z" fill="#2ECC71"/>
</svg>
