<svg xmlns="http://www.w3.org/2000/svg" width="34" height="20" fill="none">
  <path fill="#2ECC71" d="M28.054.896A10.169 10.169 0 0 0 23.874 0H10.126c-1.49 0-2.906.323-4.18.896C2.441 2.471 0 5.957 0 10c0 4.043 2.442 7.53 5.946 9.104 1.275.573 2.69.896 4.18.896h13.747c1.49 0 2.906-.323 4.18-.896C31.559 17.529 34 14.04 34 10c0-.779-.07-1.536-.24-2.264-.718-3.051-2.877-5.57-5.706-6.842v.002Z"/>
  <path fill="#0B3954" d="M28.665 6.88c-.58-.89-1.394-1.584-2.44-2.077-1.046-.494-2.267-.741-3.664-.741-1.396 0-2.619.247-3.663.74-1.046.494-1.86 1.187-2.44 2.078-.581.89-.871 1.931-.871 3.12s.29 2.228.87 3.12c.581.89 1.395 1.584 2.441 2.078 1.046.493 2.267.74 3.663.74 1.397 0 2.62-.247 3.664-.74 1.046-.494 1.86-1.187 2.44-2.078.581-.89.872-1.931.872-3.12s-.29-2.227-.872-3.12Z"/>
</svg>