<svg width="24" height="24" viewBox="0 0 24 24" fill="none" xmlns="http://www.w3.org/2000/svg">
<path d="M7 17C6.44772 17 6 17.4477 6 18C6 18.5523 6.44772 19 7 19H7.018C7.57028 19 8.018 18.5523 8.018 18C8.018 17.4477 7.57028 17 7.018 17H7Z" fill="#BFBFBF"/>
<path d="M6 15C6 14.4477 6.44772 14 7 14H7.018C7.57028 14 8.018 14.4477 8.018 15C8.018 15.5523 7.57028 16 7.018 16H7C6.44772 16 6 15.5523 6 15Z" fill="#BFBFBF"/>
<path d="M9.99103 14C9.43874 14 8.99103 14.4477 8.99103 15C8.99103 15.5523 9.43874 16 9.99103 16H10.009C10.5613 16 11.009 15.5523 11.009 15C11.009 14.4477 10.5613 14 10.009 14H9.99103Z" fill="#BFBFBF"/>
<path fill-rule="evenodd" clip-rule="evenodd" d="M8 1C8.55228 1 9 1.44772 9 2V2.5H15V2C15 1.44772 15.4477 1 16 1C16.5523 1 17 1.44772 17 2V2.55342C18.4777 2.71775 19.6792 3.26182 20.5453 4.19455C21.5868 5.31619 22 6.84671 22 8.5V17C22 18.6533 21.5868 20.1838 20.5453 21.3055C19.4913 22.4405 17.9406 23 16 23H8C6.0594 23 4.50869 22.4405 3.45471 21.3055C2.41318 20.1838 2 18.6533 2 17V8.5C2 6.84671 2.41318 5.31619 3.45471 4.19455C4.32081 3.26182 5.52234 2.71775 7 2.55342V2C7 1.44772 7.44772 1 8 1ZM7 5V4.56933C6.01591 4.71635 5.35731 5.08482 4.92029 5.55545C4.33682 6.18381 4 7.15329 4 8.5V10H20V8.5C20 7.15329 19.6632 6.18381 19.0797 5.55545C18.6427 5.08482 17.9841 4.71635 17 4.56933V5C17 5.55228 16.5523 6 16 6C15.4477 6 15 5.55228 15 5V4.5H9V5C9 5.55228 8.55228 6 8 6C7.44772 6 7 5.55228 7 5ZM4 17V12H20V17C20 18.3467 19.6632 19.3162 19.0797 19.9445C18.5087 20.5595 17.5594 21 16 21H8C6.4406 21 5.49131 20.5595 4.92029 19.9445C4.33682 19.3162 4 18.3467 4 17Z" fill="#BFBFBF"/>
</svg>
