<svg width="20" height="20" viewBox="0 0 20 20" fill="none" xmlns="http://www.w3.org/2000/svg">
<path d="M5.83329 14.1667C5.37306 14.1667 4.99996 14.5398 4.99996 15C4.99996 15.4602 5.37306 15.8333 5.83329 15.8333H5.84829C6.30853 15.8333 6.68163 15.4602 6.68163 15C6.68163 14.5398 6.30853 14.1667 5.84829 14.1667H5.83329Z" fill="#939393"/>
<path d="M4.99996 12.5C4.99996 12.0398 5.37306 11.6667 5.83329 11.6667H5.84829C6.30853 11.6667 6.68163 12.0398 6.68163 12.5C6.68163 12.9602 6.30853 13.3333 5.84829 13.3333H5.83329C5.37306 13.3333 4.99996 12.9602 4.99996 12.5Z" fill="#939393"/>
<path d="M8.32582 11.6667C7.86558 11.6667 7.49248 12.0398 7.49248 12.5C7.49248 12.9602 7.86558 13.3333 8.32582 13.3333H8.34082C8.80105 13.3333 9.17415 12.9602 9.17415 12.5C9.17415 12.0398 8.80105 11.6667 8.34082 11.6667H8.32582Z" fill="#939393"/>
<path fill-rule="evenodd" clip-rule="evenodd" d="M6.66663 0.833344C7.12686 0.833344 7.49996 1.20644 7.49996 1.66668V2.08334H12.5V1.66668C12.5 1.20644 12.8731 0.833344 13.3333 0.833344C13.7935 0.833344 14.1666 1.20644 14.1666 1.66668V2.12786C15.398 2.2648 16.3993 2.71819 17.121 3.49547C17.989 4.43017 18.3333 5.7056 18.3333 7.08334V14.1667C18.3333 15.5444 17.989 16.8198 17.121 17.7546C16.2427 18.7004 14.9505 19.1667 13.3333 19.1667H6.66663C5.04946 19.1667 3.7572 18.7004 2.87888 17.7546C2.01094 16.8198 1.66663 15.5444 1.66663 14.1667V7.08334C1.66663 5.7056 2.01094 4.43017 2.87888 3.49547C3.60064 2.71819 4.60191 2.2648 5.83329 2.12786V1.66668C5.83329 1.20644 6.20639 0.833344 6.66663 0.833344ZM5.83329 4.16668V3.80779C5.01321 3.9303 4.46439 4.23736 4.1002 4.62955C3.61398 5.15318 3.33329 5.96109 3.33329 7.08334V8.33334H16.6666V7.08334C16.6666 5.96109 16.3859 5.15318 15.8997 4.62955C15.5355 4.23736 14.9867 3.9303 14.1666 3.80779V4.16668C14.1666 4.62691 13.7935 5.00001 13.3333 5.00001C12.8731 5.00001 12.5 4.62691 12.5 4.16668V3.75001H7.49996V4.16668C7.49996 4.62691 7.12686 5.00001 6.66663 5.00001C6.20639 5.00001 5.83329 4.62691 5.83329 4.16668ZM3.33329 14.1667V10H16.6666V14.1667C16.6666 15.2889 16.3859 16.0968 15.8997 16.6205C15.4239 17.1329 14.6328 17.5 13.3333 17.5H6.66663C5.36713 17.5 4.57605 17.1329 4.1002 16.6205C3.61398 16.0968 3.33329 15.2889 3.33329 14.1667Z" fill="#939393"/>
</svg>
