<svg width="20" height="20" viewBox="0 0 20 20" fill="none" xmlns="http://www.w3.org/2000/svg">
<path d="M6.66663 9.33328C6.20639 9.33328 5.83329 9.70638 5.83329 10.1666C5.83329 10.6269 6.20639 10.9999 6.66663 10.9999H12.5C12.9602 10.9999 13.3333 10.6269 13.3333 10.1666C13.3333 9.70638 12.9602 9.33328 12.5 9.33328H6.66663Z" fill="#0B3954"/>
<path d="M6.66663 12.6666C6.20639 12.6666 5.83329 13.0397 5.83329 13.4999C5.83329 13.9602 6.20639 14.3333 6.66663 14.3333H10.3166C10.7769 14.3333 11.15 13.9602 11.15 13.4999C11.15 13.0397 10.7769 12.6666 10.3166 12.6666H6.66663Z" fill="#0B3954"/>
<path fill-rule="evenodd" clip-rule="evenodd" d="M8.26771 0.83315L8.33329 0.83335H11.6666L11.7322 0.83315C12.0946 0.831542 12.7452 0.828653 13.2747 1.18164C13.746 1.49582 14.0004 1.98198 14.1063 2.58051C15.267 2.72252 16.3052 3.07834 17.069 3.90392C17.9801 4.88887 18.3333 6.36221 18.3333 8.33336V13.3334C18.3333 15.0148 18.1375 16.5488 17.1896 17.6321C16.2176 18.743 14.6551 19.1667 12.5 19.1667H7.49996C5.34477 19.1667 3.78233 18.743 2.81031 17.6321C1.86238 16.5488 1.66663 15.0148 1.66663 13.3334V8.33336C1.66663 6.36582 2.01999 4.89312 2.93056 3.90746C3.69403 3.08104 4.73199 2.72333 5.89356 2.58068C5.9995 1.98207 6.2539 1.49585 6.72521 1.18164C7.25469 0.828653 7.9053 0.831542 8.26771 0.83315ZM5.92879 4.25762C5.07218 4.38411 4.52283 4.64002 4.15478 5.03842C3.67576 5.55694 3.33329 6.5009 3.33329 8.33336V13.3334C3.33329 14.9853 3.5542 15.9513 4.06461 16.5346C4.55092 17.0904 5.48848 17.5 7.49996 17.5H12.5C14.5114 17.5 15.449 17.0904 15.9353 16.5346C16.4457 15.9513 16.6666 14.9853 16.6666 13.3334V8.33336C16.6666 6.49618 16.3239 5.55285 15.8455 5.03572C15.4814 4.64215 14.9396 4.38852 14.0968 4.26119C14.047 4.48958 13.9622 4.72557 13.8183 4.94143C13.3809 5.59761 12.61 5.83335 11.6666 5.83335H8.33329L8.26771 5.83355C7.9053 5.83516 7.25469 5.83805 6.72521 5.48506C6.29979 5.20144 6.05109 4.77768 5.92879 4.25762ZM12.5 3.34492C12.4999 3.34861 12.4999 3.35229 12.5 3.35597C12.4998 3.56377 12.498 3.70911 12.4812 3.83519C12.4647 3.95899 12.4401 4.00418 12.4316 4.01693C12.4313 4.01761 12.4178 4.04524 12.3281 4.08012C12.2222 4.12129 12.0213 4.16668 11.6666 4.16668H8.33329C8.11333 4.16668 7.96205 4.16537 7.83145 4.14795C7.70765 4.13144 7.66246 4.10681 7.64971 4.09831C7.64904 4.09798 7.62141 4.08455 7.58653 3.99485C7.54535 3.88897 7.49996 3.68802 7.49996 3.33335C7.49996 2.97868 7.54535 2.77773 7.58653 2.67185C7.62141 2.58214 7.64903 2.56872 7.6497 2.5684C7.66245 2.5599 7.70765 2.53526 7.83145 2.51875C7.96205 2.50133 8.11333 2.50002 8.33329 2.50002H11.6666C11.8866 2.50002 12.0379 2.50133 12.1685 2.51875C12.2923 2.53526 12.3375 2.55989 12.3502 2.56839C12.3509 2.56871 12.3785 2.58214 12.4134 2.67185C12.4546 2.77773 12.5 2.97868 12.5 3.33335C12.5 3.33723 12.5 3.34108 12.5 3.34492Z" fill="#0B3954"/>
</svg>
