<svg width="24" height="24" viewBox="0 0 24 24" fill="none" xmlns="http://www.w3.org/2000/svg">
<path d="M8 11.2C7.44772 11.2 7 11.6477 7 12.2C7 12.7522 7.44772 13.2 8 13.2H15C15.5523 13.2 16 12.7522 16 12.2C16 11.6477 15.5523 11.2 15 11.2H8Z" fill="#BFBFBF"/>
<path d="M8 15.2C7.44772 15.2 7 15.6477 7 16.2C7 16.7522 7.44772 17.2 8 17.2H12.38C12.9323 17.2 13.38 16.7522 13.38 16.2C13.38 15.6477 12.9323 15.2 12.38 15.2H8Z" fill="#BFBFBF"/>
<path fill-rule="evenodd" clip-rule="evenodd" d="M9.9213 0.999793L10 1.00003H14L14.0787 0.999793C14.5136 0.997862 15.2943 0.994396 15.9297 1.41798C16.4952 1.79499 16.8005 2.37838 16.9276 3.09662C18.3205 3.26704 19.5663 3.69402 20.4828 4.68471C21.5762 5.86665 22 7.63467 22 10V16C22 18.0177 21.7651 19.8585 20.6276 21.1586C19.4612 22.4916 17.5862 23 15 23H9C6.41378 23 4.53884 22.4916 3.37242 21.1586C2.23491 19.8585 2 18.0177 2 16V10C2 7.63899 2.42404 5.87175 3.51672 4.68897C4.43289 3.69726 5.67843 3.268 7.07232 3.09683C7.19944 2.37849 7.50473 1.79503 8.0703 1.41798C8.70568 0.994396 9.4864 0.997862 9.9213 0.999793ZM7.11459 5.10916C6.08667 5.26095 5.42744 5.56804 4.98578 6.04612C4.41096 6.66834 4 7.8011 4 10V16C4 17.9824 4.26509 19.1416 4.87758 19.8415C5.46116 20.5085 6.58622 21 9 21H15C17.4138 21 18.5388 20.5085 19.1224 19.8415C19.7349 19.1416 20 17.9824 20 16V10C20 7.79542 19.5888 6.66344 19.0147 6.04288C18.5778 5.57059 17.9276 5.26624 16.9162 5.11344C16.8564 5.38751 16.7547 5.6707 16.5821 5.92973C16.0571 6.71714 15.1321 7.00003 14 7.00003H10L9.9213 7.00027C9.4864 7.0022 8.70568 7.00567 8.0703 6.58208C7.55979 6.24175 7.26136 5.73323 7.11459 5.10916ZM15 4.01392C15 4.01834 15 4.02276 15 4.02718C14.9999 4.27654 14.9977 4.45095 14.9775 4.60224C14.9577 4.7508 14.9282 4.80503 14.9179 4.82033C14.9176 4.82114 14.9014 4.85429 14.7938 4.89615C14.6667 4.94557 14.4256 5.00003 14 5.00003H10C9.73605 5.00003 9.55451 4.99845 9.39779 4.97755C9.24923 4.95775 9.19501 4.92819 9.1797 4.91798C9.17889 4.91759 9.14574 4.90147 9.10388 4.79384C9.05447 4.66677 9 4.42564 9 4.00003C9 3.57442 9.05447 3.33329 9.10388 3.20623C9.14574 3.09858 9.17888 3.08248 9.17969 3.08209C9.19499 3.07189 9.24923 3.04232 9.39779 3.02251C9.55451 3.00161 9.73605 3.00003 10 3.00003H14C14.264 3.00003 14.4455 3.00161 14.6022 3.02251C14.7508 3.04232 14.805 3.07188 14.8203 3.08208C14.8211 3.08247 14.8543 3.09858 14.8961 3.20623C14.9455 3.33329 15 3.57442 15 4.00003C15 4.00469 15 4.00931 15 4.01392Z" fill="#BFBFBF"/>
</svg>
