<svg width="20" height="20" viewBox="0 0 20 20" fill="none" xmlns="http://www.w3.org/2000/svg">
<path d="M17.625 5.14165C17.2833 4.95831 16.5666 4.76665 15.5916 5.44998L14.3666 6.31665C14.275 3.72498 13.15 2.70831 10.4166 2.70831H5.41665C2.56665 2.70831 1.45831 3.81665 1.45831 6.66665V13.3333C1.45831 15.25 2.49998 17.2916 5.41665 17.2916H10.4166C13.15 17.2916 14.275 16.275 14.3666 13.6833L15.5916 14.55C16.1083 14.9166 16.5583 15.0333 16.9166 15.0333C17.225 15.0333 17.4666 14.9416 17.625 14.8583C17.9666 14.6833 18.5416 14.2083 18.5416 13.0166V6.98331C18.5416 5.79165 17.9666 5.31665 17.625 5.14165ZM9.16665 9.48331C8.30831 9.48331 7.59998 8.78331 7.59998 7.91665C7.59998 7.04998 8.30831 6.34998 9.16665 6.34998C10.025 6.34998 10.7333 7.04998 10.7333 7.91665C10.7333 8.78331 10.025 9.48331 9.16665 9.48331Z" fill="#2ECC71"/>
</svg>
