<svg xmlns="http://www.w3.org/2000/svg" style="display:none">
  <symbol id="telegram" viewBox="0 0 32 32">
    <path fill="currentColor" fill-rule="evenodd" d="M5.65 14.61q9.663-4.234 12.888-5.582C24.675 6.46 25.95 6.015 26.782 6c.182-.003.591.042.856.259.223.182.285.428.314.601s.066.567.037.875c-.332 3.514-1.771 12.041-2.503 15.977-.31 1.665-.92 2.223-1.51 2.278-1.284.119-2.259-.853-3.502-1.672-1.945-1.282-3.044-2.08-4.931-3.331-2.182-1.446-.768-2.24.476-3.54.325-.34 5.98-5.511 6.089-5.98.014-.059.026-.278-.103-.393-.13-.116-.32-.076-.457-.045q-.294.067-9.322 6.196-1.323.913-2.397.89c-.789-.017-2.307-.449-3.435-.818-1.384-.452-2.484-.691-2.388-1.46q.075-.6 1.644-1.227" clip-rule="evenodd"/>
  </symbol>

  <symbol id="vk" viewBox="0 0 32 32">
    <path fill="currentColor" d="M17.43 26C6.495 26 .26 18.493 0 6h5.477c.18 9.17 4.217 13.053 7.415 13.854V6h5.157v7.908c3.158-.34 6.475-3.944 7.595-7.908H30.8c-.86 4.885-4.458 8.489-7.016 9.97C26.343 17.17 30.44 20.314 32 26h-5.677c-1.219-3.804-4.257-6.747-8.274-7.147V26z"/>
  </symbol>

  <symbol id="ether-full" viewBox="0 0 132 32">
    <g clip-path="url(#a)">
      <path fill="#21aa58" d="M71.446 7.58q-2.111-1.298-4.972-1.298-2.69 0-4.802 1.28-1.84 1.117-3.1 3.012V.065h-6.845v10.51q-1.26-1.894-3.1-3.013-2.112-1.28-4.837-1.28c-1.817 0-3.502.432-4.92 1.298q-2.129 1.299-3.305 3.62-1.175 2.325-1.175 5.431c0 2.072.392 3.82 1.175 5.38q1.175 2.34 3.304 3.62t4.921 1.281c1.862 0 3.423-.427 4.82-1.28q1.84-1.126 3.115-3.057v9.426h6.846v-9.414q1.248 1.922 3.1 3.044 2.112 1.281 4.802 1.281 2.826 0 4.939-1.28 2.111-1.282 3.286-3.621t1.175-5.38c0-2.027-.386-3.882-1.157-5.43q-1.159-2.322-3.27-3.621M49.616 20.2q-1.67 1.417-3.713 1.417-1.329 0-2.35-.65a4.24 4.24 0 0 1-1.567-1.776q-.545-1.128-.545-2.562c0-.956.181-1.844.545-2.596a4.25 4.25 0 0 1 1.566-1.776q1.022-.649 2.35-.65 2.044 0 3.713 1.402 1.668 1.4 2.384 3.62-.716 2.153-2.384 3.57m18.68-1.008a4.4 4.4 0 0 1-1.566 1.776q-1.005.65-2.333.65-2.078 0-3.728-1.417-1.653-1.417-2.402-3.57.75-2.22 2.402-3.62 1.652-1.401 3.728-1.401 1.328 0 2.333.65a4.4 4.4 0 0 1 1.566 1.776q.562 1.127.562 2.595c0 .978-.187 1.81-.562 2.562zM85.784 19.853V6.862h-6.88v19.502h8.685l8.958-13.4v13.4h6.844V6.862h-8.922zM130.791 11.2q-1.21-2.322-3.371-3.62-2.163-1.298-5.023-1.299c-1.908 0-3.486.427-4.939 1.281q-1.913 1.125-3.236 3.037V6.862h-6.981V32h6.981v-9.44q1.313 1.94 3.236 3.07 2.18 1.281 4.939 1.281c1.838 0 3.58-.427 5.023-1.281q2.162-1.28 3.371-3.62T132 16.63c0-2.027-.403-3.882-1.209-5.431zm-6.404 7.992a4.36 4.36 0 0 1-1.669 1.759q-1.073.631-2.435.631c-.908 0-1.817-.21-2.657-.631a7 7 0 0 1-2.213-1.76 8.1 8.1 0 0 1-1.464-2.561 8.1 8.1 0 0 1 1.464-2.596 7.2 7.2 0 0 1 2.213-1.776 5.7 5.7 0 0 1 2.657-.65c.932 0 1.719.217 2.435.65a4.5 4.5 0 0 1 1.669 1.776q.597 1.129.597 2.596c0 .978-.199 1.81-.597 2.562M24.294 1.687Q20.684.001 15.868 0q-4.305 0-7.714 1.378-3.412 1.378-5.527 3.84Q.51 7.68 0 10.987h7.515q.365-1.62 1.459-2.738 1.094-1.12 2.827-1.722 1.731-.603 3.995-.603 2.735 0 4.669.896 1.933.895 2.973 2.583 1.038 1.688 1.039 4.064t-1.04 4.064-2.972 2.584q-1.934.895-4.67.895-2.262 0-4.012-.603-1.75-.601-2.845-1.739a5.43 5.43 0 0 1-1.423-2.72H0q.51 3.27 2.626 5.751t5.526 3.858q3.411 1.378 7.715 1.378 4.816 0 8.426-1.688t5.636-4.719 2.025-7.06q0-4.03-2.025-7.06t-5.636-4.719z"/>
      <path fill="#fff" d="M20.187 11.196q-.625-.974-1.75-1.512-1.125-.54-2.626-.539-1.503 0-2.627.54-1.123.539-1.75 1.511-.624.974-.625 2.271 0 1.298.626 2.271.624.975 1.75 1.512 1.123.54 2.626.539 1.502 0 2.626-.54 1.125-.539 1.75-1.511.625-.974.624-2.271 0-1.298-.624-2.271"/>
    </g>
    <defs>
      <clipPath id="a">
        <path fill="#fff" d="M0 0h132v32H0z"/>
      </clipPath>
    </defs>
  </symbol>

  <symbol id="ether-sign" viewBox="0 0 44 36">
    <g clip-path="url(#clip0_874_1155)">
      <path d="M21.8508 36C17.8997 36 14.3579 35.3859 11.2285 34.1578C8.09595 32.9296 5.56039 31.2102 3.61871 29.0025C1.67704 26.7918 0.470802 24.2307 0.00307714 21.313H10.3515C10.6531 22.7239 11.3054 23.9371 12.3116 24.9496C13.3179 25.9621 14.6226 26.7379 16.2288 27.2741C17.8351 27.8103 19.6783 28.0799 21.7554 28.0799C24.2663 28.0799 26.408 27.6815 28.1835 26.8817C29.959 26.0849 31.3222 24.9316 32.2761 23.4279C33.23 21.9241 33.707 20.1148 33.707 17.994C33.707 15.8732 33.23 14.0669 32.2761 12.5632C31.3222 11.0594 29.9559 9.90914 28.1835 9.10934C26.408 8.31253 24.2663 7.91113 21.7554 7.91113C19.6783 7.91113 17.8443 8.18073 16.2565 8.71692C14.6656 9.25312 13.3671 10.023 12.3639 11.0175C11.3608 12.015 10.69 13.2341 10.3546 14.678H0C0.467725 11.7304 1.67396 9.16026 3.61564 6.96755C5.55731 4.77484 8.09287 3.06141 11.2254 1.83325C14.3579 0.614079 17.8966 0 21.8508 0C26.2695 0 30.1375 0.751872 33.4546 2.25562C36.7687 3.75936 39.3566 5.86221 41.2152 8.56116C43.0738 11.2631 44.0031 14.4084 44.0031 17.997C44.0031 21.5856 43.0738 24.7339 41.2152 27.4358C39.3566 30.1378 36.7687 32.2406 33.4546 33.7414C30.1406 35.2451 26.2726 35.997 21.8508 35.997V36Z" fill="#2ECC71"/>
      <path d="M27.7959 14.9655C27.2205 14.0968 26.4205 13.4258 25.3865 12.9435C24.3557 12.4642 23.1495 12.2246 21.7709 12.2246C20.3924 12.2246 19.1861 12.4642 18.1553 12.9435C17.1244 13.4228 16.3213 14.0968 15.7459 14.9655C15.1735 15.8342 14.8843 16.8437 14.8843 17.9999C14.8843 19.1562 15.1705 20.1687 15.7459 21.0344C16.3213 21.9031 17.1214 22.5771 18.1553 23.0564C19.1861 23.5356 20.3924 23.7753 21.7709 23.7753C23.1495 23.7753 24.3557 23.5356 25.3865 23.0564C26.4174 22.5771 27.2205 21.9031 27.7959 21.0344C28.3683 20.1657 28.6575 19.1562 28.6575 17.9999C28.6575 16.8437 28.3714 15.8312 27.7959 14.9655Z" fill="#0B3954"/>
    </g>
    <defs>
      <clipPath id="clip0_874_1155">
        <rect width="44" height="36" fill="white"/>
      </clipPath>
    </defs>
  </symbol>

  <symbol id="flash" viewBox="0 0 24 24">
    <path fill="currentColor" fill-rule="evenodd" clip-rule="evenodd" d="M12.2929 2.26401C13.4518 0.942876 15.6258 1.77205 15.6259 3.51987V9.97006H17.9657C19.6089 9.9702 20.4858 11.8991 19.3983 13.1351L11.829 21.7357L11.828 21.7347C10.6692 23.0564 8.49601 22.2278 8.49601 20.4798V14.0296H6.15616C4.51642 14.0296 3.65254 12.0988 4.71866 10.8685L4.72257 10.8646L12.2929 2.26401ZM14.1259 3.51987C14.1258 3.1488 13.6614 2.97758 13.4198 3.25327L13.4189 3.25522L5.84854 11.8558C5.62118 12.1255 5.81794 12.5296 6.15616 12.5296H9.24601C9.65994 12.5299 9.99585 12.8657 9.99601 13.2796V20.4798C9.99601 20.8511 10.4596 21.0214 10.7011 20.7455L10.703 20.7445L18.2724 12.1439C18.5044 11.8799 18.3222 11.4702 17.9657 11.4701H14.8759C14.4618 11.4701 14.126 11.1342 14.1259 10.7201V3.51987Z" />
  </symbol>

  <symbol id="data" viewBox="0 0 24 24">
    <path fill="currentColor" fill-rule="evenodd" clip-rule="evenodd" d="M20 1.25C21.5188 1.25 22.75 2.48122 22.75 4C22.75 5.51878 21.5188 6.75 20 6.75C18.7415 6.75 17.6832 5.90386 17.3564 4.75H14C13.1156 4.75 12.59 4.97053 12.2803 5.28027C11.9705 5.59001 11.75 6.11561 11.75 7V11.25H17.3564C17.6832 10.0961 18.7415 9.25 20 9.25C21.5188 9.25 22.75 10.4812 22.75 12C22.75 13.5188 21.5188 14.75 20 14.75C18.7415 14.75 17.6832 13.9039 17.3564 12.75H11.75V17C11.75 17.8844 11.9705 18.41 12.2803 18.7197C12.59 19.0295 13.1156 19.25 14 19.25H17.3564C17.6832 18.0961 18.7415 17.25 20 17.25C21.5188 17.25 22.75 18.4812 22.75 20C22.75 21.5188 21.5188 22.75 20 22.75C18.7415 22.75 17.6832 21.9039 17.3564 20.75H14C12.8844 20.75 11.91 20.4705 11.2197 19.7803C10.5295 19.09 10.25 18.1156 10.25 17V12.75H6.64355C6.31684 13.9039 5.2585 14.75 4 14.75C2.48122 14.75 1.25 13.5188 1.25 12C1.25 10.4812 2.48122 9.25 4 9.25C5.2585 9.25 6.31684 10.0961 6.64355 11.25H10.25V7C10.25 5.88439 10.5295 4.90999 11.2197 4.21973C11.91 3.52947 12.8844 3.25 14 3.25H17.3564C17.6832 2.09614 18.7415 1.25 20 1.25ZM20 18.75C19.3096 18.75 18.75 19.3096 18.75 20C18.75 20.6904 19.3096 21.25 20 21.25C20.6904 21.25 21.25 20.6904 21.25 20C21.25 19.3096 20.6904 18.75 20 18.75ZM4 10.75C3.30964 10.75 2.75 11.3096 2.75 12C2.75 12.6904 3.30964 13.25 4 13.25C4.69036 13.25 5.25 12.6904 5.25 12C5.25 11.3096 4.69036 10.75 4 10.75ZM20 10.75C19.3096 10.75 18.75 11.3096 18.75 12C18.75 12.6904 19.3096 13.25 20 13.25C20.6904 13.25 21.25 12.6904 21.25 12C21.25 11.3096 20.6904 10.75 20 10.75ZM20 2.75C19.3096 2.75 18.75 3.30964 18.75 4C18.75 4.69036 19.3096 5.25 20 5.25C20.6904 5.25 21.25 4.69036 21.25 4C21.25 3.30964 20.6904 2.75 20 2.75Z" />
  </symbol>

  <symbol id="message" viewBox="0 0 24 24">
    <path fill="currentColor" d="M12.0049 13C12.4189 13.0002 12.7549 13.3359 12.7549 13.75C12.7549 14.1641 12.4189 14.4998 12.0049 14.5H11.9951C11.5811 14.4998 11.2451 14.1641 11.2451 13.75C11.2451 13.3359 11.5811 13.0002 11.9951 13H12.0049Z" />
    <path fill="currentColor" d="M12 6.11035C13.3342 6.11045 14.4102 7.18639 14.4102 8.52051C14.4099 9.5722 13.7176 10.1268 13.2646 10.4365L13.2656 10.4375C13.0706 10.5722 12.9446 10.6781 12.8633 10.7871C12.796 10.8775 12.75 10.9827 12.75 11.1504V11.3604C12.7497 11.7743 12.414 12.1103 12 12.1104C11.5859 12.1104 11.2503 11.7743 11.25 11.3604V11.1504C11.25 10.0737 11.9588 9.51746 12.4141 9.20312L12.417 9.20117C12.602 9.07484 12.723 8.97104 12.8008 8.86621C12.8658 8.77847 12.91 8.67786 12.9102 8.52051C12.9102 8.01475 12.5057 7.61045 12 7.61035C11.4942 7.61035 11.0898 8.01469 11.0898 8.52051C11.0895 8.93444 10.7539 9.27051 10.3398 9.27051C9.92583 9.27051 9.59017 8.93444 9.58984 8.52051C9.58984 7.18633 10.6658 6.11035 12 6.11035Z" />
    <path fill="currentColor" fill-rule="evenodd" clip-rule="evenodd" d="M17 1.67969C18.6704 1.67969 20.1207 2.24081 21.1553 3.27539C22.1897 4.30996 22.75 5.76036 22.75 7.43066V13.4307C22.7499 15.1009 22.1897 16.5515 21.1553 17.5859C20.1207 18.6204 18.6703 19.1807 17 19.1807H13.2275L8.96582 22.0156L8.96484 22.0146C7.80999 22.7835 6.25036 21.9629 6.25 20.5605V19.1396C4.89605 18.9963 3.72107 18.4622 2.84473 17.5859C1.81026 16.5515 1.25011 15.1009 1.25 13.4307V7.43066C1.25 5.76036 1.8103 4.30996 2.84473 3.27539C3.87931 2.24081 5.32956 1.67969 7 1.67969H17ZM7 3.18066C5.67044 3.18066 4.62069 3.62052 3.90527 4.33594C3.19 5.05135 2.75 6.10125 2.75 7.43066V13.4307C2.75011 14.76 3.18996 15.8101 3.90527 16.5254C4.62068 17.2407 5.67059 17.6807 7 17.6807C7.41419 17.6807 7.74997 18.0165 7.75 18.4307V20.5605C7.75036 20.7571 7.96905 20.8761 8.13379 20.7666L12.585 17.8066L12.6807 17.752C12.7801 17.7052 12.8892 17.6807 13 17.6807H17C18.3294 17.6807 19.3793 17.2407 20.0947 16.5254C20.81 15.8101 21.2499 14.76 21.25 13.4307V7.43066C21.25 6.10125 20.81 5.05135 20.0947 4.33594C19.3793 3.62052 18.3296 3.18066 17 3.18066H7Z" />
  </symbol>

  <symbol id="OT" viewBox="0 0 34 20">
    <path id="body" fill="currentColor" d="M28.054.896A10.169 10.169 0 0 0 23.874 0H10.126c-1.49 0-2.906.323-4.18.896C2.441 2.471 0 5.957 0 10c0 4.043 2.442 7.53 5.946 9.104 1.275.573 2.69.896 4.18.896h13.747c1.49 0 2.906-.323 4.18-.896C31.559 17.529 34 14.04 34 10c0-.779-.07-1.536-.24-2.264-.718-3.051-2.877-5.57-5.706-6.842v.002Z"/>
    <path id="center" fill="#0B3954" d="M28.665 6.88c-.58-.89-1.394-1.584-2.44-2.077-1.046-.494-2.267-.741-3.664-.741-1.396 0-2.619.247-3.663.74-1.046.494-1.86 1.187-2.44 2.078-.581.89-.871 1.931-.871 3.12s.29 2.228.87 3.12c.581.89 1.395 1.584 2.441 2.078 1.046.493 2.267.74 3.663.74 1.397 0 2.62-.247 3.664-.74 1.046-.494 1.86-1.187 2.44-2.078.581-.89.872-1.931.872-3.12s-.29-2.227-.872-3.12Z"/>
  </symbol>
</svg>